<svg width="150px" height="96px" viewBox="-30 -20 250 161" version="1.1" xmlns="http://www.w3.org/2000/svg">
  <g stroke="none" stroke-width="1" fill="none" fill-rule="evenodd">
    <g transform="translate(-626.000000, -6012.000000)" fill="#000000">
      <g transform="translate(1.000000, 5527.000000)">
        <g transform="translate(625.000000, 485.000000)">
          <polygon points="87.557 66.512 189.255 66.512 189.255 54.5 87.557 54.5"></polygon>
          <polygon points="162.9612 -0.0003 154.9472 78.8057 146.9342 -0.0003 129.8782 -0.0003 121.8642 78.8057 113.8512 -0.0003 97.5852 -0.0003 110.3792 121.0107 117.0852 121.0107 126.6422 121.0107 133.3512 121.0107 138.4052 59.1897 143.4612 121.0107 150.1692 121.0107 159.7262 121.0107 166.4342 121.0107 179.2272 -0.0003"></polygon>
          <polygon points="65.376 -0.0003 57.362 75.8047 49.349 -0.0003 32.292 -0.0003 24.278 75.8047 16.265 -0.0003 0 -0.0003 12.793 121.0107 19.5 121.0107 29.058 121.0107 35.765 121.0107 40.82 59.1897 45.877 121.0107 52.583 121.0107 62.141 121.0107 68.849 121.0107 81.641 -0.0003"></polygon>
        </g>
      </g>
    </g>
  </g>
</svg>
